<svg width="580" height="400" xmlns="http://www.w3.org/2000/svg">
 <!-- Created with Method Draw - http://github.com/duopixel/Method-Draw/ -->
 <g>
  <title>background</title>
  <rect fill="#c1bdbd" id="canvas_background" height="402" width="582" y="-1" x="-1"/>
  <g display="none" overflow="visible" y="0" x="0" height="100%" width="100%" id="canvasGrid">
   <rect fill="url(#gridpattern)" stroke-width="0" y="0" x="0" height="100%" width="100%"/>
  </g>
 </g>
 <g>
  <title>Layer 1</title>
  <path d="m70.5,148.261227c0,0 0,1 0,2c0,3 -0.432678,6.054131 -1,9c-1.018372,5.287994 -1.75563,8.014984 -2,10c-0.503777,4.092216 -2.519455,8.038734 -3,11c-0.506538,3.121445 -1,5 -2,8c-1,3 -2,5 -2,8c0,3 0,6 0,8c0,2 -0.493462,2.878555 -1,6c-0.320366,1.974182 -2,5 -2,6c0,3 0,4 0,5c0,2 0,3 0,4c0,1 0,3 0,4c0,2 -1,2 -1,3c0,1 0,-1 0,-11l0,-9" id="svg_1" stroke-width="1.5" stroke="#000" fill="none"/>
  <path d="m67.5,158.261227c1,0 2.022476,0.366547 5,0c4.092216,-0.503777 9.757111,-1.986916 16,-3c6.909615,-1.121277 11,0 14,0c2,0 3.61731,0.076118 4,1c0.541199,1.306564 3.513,1.593994 5,4c1.662506,2.689995 2.486252,4.823746 3,7c0.229752,0.973251 1.406006,4.504326 -1,9c-0.667313,1.24688 -3.88855,4.194092 -9,7c-5.880447,3.22805 -11,4 -19,4c-5,0 -9,0 -11,0c-2,0 -2.695518,0.530731 1,-1c1.306564,-0.541199 10,-2 21,-2c4,0 5.61731,0.076118 6,1c1.623581,3.919685 3.714127,4.211678 6,7c0.896591,1.093674 1,2 1,3c0,3 0,6 0,8c0,2 0,3 0,4c0,1 -0.310013,2.337494 -3,4c-2.406006,1.487 -3.186005,1.692551 -5,3c-2.29454,1.653809 -7.693436,2.458801 -9,3c-3.695518,1.530731 -6,2 -8,2c-3,0 -5,0 -7,0c-1,0 -2.693436,0.458801 -4,1c-0.923882,0.38269 -3.150986,-1.565369 -5,1c-0.584709,0.811249 -2,1 -3,1c-2,0 -4,1 -5,1c-2,0 -3,0 -4,0c-3,0 -4,1 -6,1l-1,0" id="svg_2" stroke-width="1.5" stroke="#000" fill="none"/>
  <path d="m138.5,164.261227c-1,0 -2.540497,0.053505 -3,2c-1.027481,4.352501 -2,9 -2,13c0,7 0,12 0,15c0,2 -0.497559,5.925797 -1,11c-0.295609,2.985397 0,6 0,7c0,2 0.160187,4.012909 0,5c-0.506546,3.121445 -1,5 -1,7l0,1" id="svg_3" stroke-width="1.5" stroke="#000" fill="none"/>
  <path d="m134.5,169.261227c0,0 0.978989,-0.065407 4,-1c6.954895,-2.151596 11.549149,-3.95517 15,-5c0.957092,-0.289787 3,-1 5,-1c1,0 3,0 4,0c0,0 2.878677,-2.121323 5,0c0.707108,0.707108 1,2 1,3c0,3 1.234634,8.152245 2,10c0.541199,1.306564 1,4 1,6c0,1 -0.714127,3.211678 -3,6c-0.896591,1.093674 -2.902832,1.224205 -5,2c-3.867004,1.430496 -6.823746,2.486259 -9,3c-1.946503,0.459503 -5,0 -9,0c-3,0 -6,0 -7,0c-1,0 -0.813995,0.692551 1,2c1.147263,0.826904 3,3 4,4c2,2 3.418854,3.418861 5,5c1.581146,1.581139 3.418854,2.418861 5,4c1.581146,1.581139 1.418854,2.418861 3,4c1.581146,1.581146 2.692551,3.186005 4,5c1.653809,2.29454 2.486252,2.823746 3,5c0.229752,0.973251 1,2 2,4l1,1l1,1l1,2" id="svg_4" stroke-width="1.5" stroke="#000" fill="none"/>
  <path d="m188.5,192.261227c4,2 5.133759,0.851234 10,2c2.176254,0.513741 7,1 9,1c5,0 10,0 15,0c3,0 7.012909,-2.839821 8,-3c3.121429,-0.506538 5,-3 6,-4c1,-1 1.458801,-1.693436 2,-3c0.38269,-0.923882 0.467621,-4.198921 -1,-7c-2.320526,-4.428894 -5.88855,-9.194092 -11,-12c-1.960144,-1.076019 -5.042908,-3.710213 -6,-4c-3.450851,-1.04483 -5,-2 -8,-2c-1,0 -4.025818,-0.320366 -6,0c-3.121445,0.506538 -6.232956,2.589729 -10,5c-5.393585,3.450989 -7.789856,6.078438 -9,9c-1.711411,4.131714 -4,9 -4,11c0,7 -0.610916,11.03746 0,16c0.503769,4.092216 2.447983,11.445465 9,19c1.853195,2.136749 4,6 6,8c2,2 4.053497,2.540497 6,3c6.528748,1.541229 9,4 15,4c6,0 11.038666,0.55481 15,0c7.209747,-1.009766 10,-5 11,-6l1,-1l1,-1l0,-1" id="svg_5" stroke-width="1.5" stroke="#000" fill="none"/>
  <path d="m270.5,229.261227c-1,0 -3,-2 -3,-4c0,-5 2.09137,-11.955612 4,-16c4.203369,-8.906837 3.459991,-14.201004 5,-20c2.069336,-7.792168 4.144287,-10.934143 5,-13c1.210144,-2.921562 2.917603,-3.386871 4,-6c0.765381,-1.847755 -0.230835,-3.423592 1,-5c2.537415,-3.249855 3.693451,-3.458801 5,-4c1.847748,-0.765366 4,0 6,2c4,4 6.49295,7.234009 9,12c3.357117,6.381989 5,10 6,12c1,2 2,5 2,7c0,5 0,8 0,11c0,1 0.48056,3.038734 0,6c-0.506531,3.121445 -3.418854,4.418854 -5,6c-1.581146,1.581146 -1,3 -1,4l-1,1" id="svg_6" stroke-width="1.5" stroke="#000" fill="none"/>
  <path d="m279.5,191.261227c0,0 -1.707092,0.292892 -1,1c3.535522,3.535538 9,0 10,0c3,0 5,0 6,0c2,0 3,0 4,0c1,0 3,0 4,0c2,0 3,0 5,0l1,0" id="svg_7" stroke-width="1.5" stroke="#000" fill="none"/>
  <path d="m325.5,149.261227c0,0 0,1 0,5c0,8 -0.855286,16.052444 0,23c0.503784,4.092216 -0.148041,9.228363 1,12c1.082397,2.613129 2,5 2,8c0,1 0.486267,3.823746 1,6c0.459503,1.946495 0,3 0,5c0,0 0,2 0,3c0,3 0,5 0,7c0,1 0,3 0,4l0,1l1,2" id="svg_8" stroke-width="1.5" stroke="#000" fill="none"/>
  <path d="m325.5,179.261227c0,0 1,0 2,0c1,0 2.925781,-0.497551 8,-1c2.985413,-0.295616 4,-1 6,-1c2,0 3.132019,-0.755318 7,-3c3.118469,-1.809723 4.076111,-2.617317 5,-3c1.306549,-0.541199 2,-1 4,-3c1,-1 0.948547,-1.298698 2,-3c1.175568,-1.902115 3.418854,-2.418861 5,-4c1.581146,-1.581139 2.458801,-2.693436 3,-4c0.38269,-0.923882 -0.765381,-3.152245 0,-5c0.541199,-1.306564 1,-2 1,-3l1,-1l1,0l0,-2" id="svg_9" stroke-width="1.5" stroke="#000" fill="none"/>
  <path d="m326.5,175.261227c0,0 0,2 0,3c0,3 1.418854,4.418861 3,6c1.581146,1.581139 2.458801,2.693436 3,4c0.38269,0.923882 0,4 0,7c0,2 0,3 0,4c0,1 1.292908,3.292892 2,4c0.707092,0.707108 0.292908,2.292892 1,3c0.707092,0.707108 1.026764,-0.229752 2,0c2.176239,0.513741 1.878571,2.493462 5,3c1.974182,0.320366 3,0 5,0c1,0 2.61731,0.076118 3,1c0.541199,1.306564 1.693451,1.458801 3,2c1.847748,0.765366 2.292908,1.292892 3,2c0.707092,0.707108 1.585785,1.585785 3,3c0.707092,0.707108 3.15097,-1.565369 5,1c0.584717,0.811249 0.693451,1.458801 2,2c0.923889,0.38269 1.076111,0.61731 2,1c2.613129,1.082397 3,2 5,3l1,0" id="svg_10" stroke-width="1.5" stroke="#000" fill="none"/>
  <path d="m411.5,163.261227c1,0 1.229767,1.026749 1,2c-1.027496,4.352501 -6.415894,6.761078 -8,10c-1.389343,2.840721 -2.95517,4.549156 -4,8c-0.579559,1.914185 -0.486267,2.823746 -1,5c-0.68927,2.919746 0,4 0,9c0,5 -1.37851,7.160507 0,13c1.027496,4.352509 3.188477,6.522171 6,10c4.025513,4.979492 8.044159,5.87619 11,7c7.118622,2.706497 9,4 14,4c5,0 10,0 14,0c5,0 8.497559,-0.925797 9,-6c0.591217,-5.970795 0,-13 0,-20c0,-3 0,-6 0,-9c0,-4 -0.532379,-9.198921 -2,-12c-2.320526,-4.428894 -5.222198,-5.488792 -8,-7c-5.624634,-3.059959 -7.056641,-4.917534 -10,-7c-4.081696,-2.887863 -7.824432,-4.097885 -9,-6c-0.525726,-0.850655 -3,-1 -6,-1c-5,0 -6,0 -7,0c-2,0 -3.186005,-0.307449 -5,1c-1.147278,0.826904 -1,2 -1,4l0,1l0,3" id="svg_11" stroke-width="1.5" stroke="#000" fill="none"/>
  <path d="m463.5,169.261227c0,2 0,3 0,8c0,4 0.430481,7.133003 -1,11c-0.775787,2.097176 -0.513733,3.823746 0,6c0.229767,0.973251 -0.765381,8.152245 0,10c0.541199,1.306564 1,2 1,3c0,2 -0.869354,5.128723 0,8c1.04483,3.450851 2.173096,3.852737 3,5c1.307465,1.813995 2.292908,3.292892 3,4c0.707092,0.707108 1.292908,1.292892 2,2c0.707092,0.707108 1.693451,0.458801 3,1c1.847748,0.765366 3.080261,0.689255 6,0c2.17627,-0.513748 3,-3 5,-5c1,-1 3,-6 3,-9c0,-8 1,-15 1,-25c0,-7 0.981628,-8.712006 2,-14c1.134644,-5.891739 0.551086,-9.214539 2,-14c1.044861,-3.450844 2,-4 2,-6c0,-1 0,2 0,4c0,3 -0.633423,7.022476 -1,10c-0.503784,4.092216 -2,7 -2,10c0,5 0,10 0,13c0,2 0,5 0,7c0,3 0,4 0,7c0,2 0,3 0,4c0,1 0,3 0,4c0,2 0,3 0,5c0,1 0,2 0,3l0,2l0,1" id="svg_12" stroke-width="1.5" stroke="#000" fill="none"/>
  <path stroke="#000" d="m503.452549,161.261227c0,-1 0,-2 0,-1c0,3 1.947693,7.144348 0,15c-1.311061,5.287994 -2.574818,7 -2.574818,10c0,3 0.591608,6.053505 0,8c-0.661384,2.176254 -1.287409,3 -1.287409,6c0,3 0,4 0,7c0,1 0,3 0,5c0,2 -0.910317,3.292892 0,4c0.910317,0.707108 2.767096,2.474274 3.862227,3c2.44878,1.175568 2.574818,2 5.149636,2c1.287409,0 3.960213,-0.38269 5.149636,0c1.682102,0.541199 2.574818,1 5.149636,1c1.287409,0 3.862227,0 5.149636,0c1.287409,0 2.574818,0 5.149636,0c1.287409,0 2.574818,-1 3.862227,-1c2.574818,0 3.862227,0 5.149636,-1l1.287409,-1l0,-2" id="svg_13" stroke-width="1.5" fill="none"/>
  <path d="m500.5,189.261227c0,0 3,0 4,0c6,0 8,0 14,0c3,0 7,0 10,2l2,0l1,0" id="svg_14" fill-opacity="null" stroke-opacity="null" stroke-width="1.5" stroke="#000" fill="none"/>
 </g>
</svg>